<svg id="Layer_1" data-name="Layer 1" xmlns="http://www.w3.org/2000/svg" xmlns:xlink="http://www.w3.org/1999/xlink" viewBox="0 0 1750 1448"><defs><style>.cls-1{fill:none;}.cls-2{clip-path:url(#clip-path);}.cls-3{fill:#fff;}</style><clipPath id="clip-path"><rect class="cls-1" width="1750" height="1448"/></clipPath></defs><title>Winkoz_Icon</title><g class="cls-2"><path class="cls-3" d="M1457.41,868.87c-7.7-18.46-16.47-36.56-25.18-54.48-42.83-88.09-111.37-228.11-154.2-316.2-16.43-33.79-35.54-70.22-70-85.06-43.28-18.61-100,11.42-109,57.68-6.54,33.8,9.23,67.49,24.56,98.31,46.89,94.27,119.5,240.48,166.39,334.75,13.36,26.86,26.94,58.1,15.19,85.7-10.47,24.57-41.88,37.79-66.77,28.11s-38.13-35.87-49.31-60L961.45,466.86C937.17,414.5,913.55,358,871.93,318,811.2,259.64,718,243.1,636,269.82,556,295.91,497.25,376.13,492.29,460.19c-4.23,71.75,27.83,140.08,59.13,204.77Q610.68,787.49,670,910c11,22.72,22.25,48,15.4,72.33-7.29,25.79-36.91,42.94-62.91,36.41-30.31-7.62-46.94-39.33-59.85-67.8C530.43,880,478.47,766,446.3,695.06c-12.72-28-26.7-57.59-52.5-74.38-44.64-29-114.62,1-124.27,53.41-6,32.65,8.19,65.27,22.05,95.44C319.35,830,366.92,933.57,394.69,994c20.84,45.38,42.17,91.51,75.48,128.73,75,83.77,213.58,87.24,302.28,22.73,48.67-35.39,82.19-92,86.24-152.08,4.36-64.8-24-126.81-51.7-185.55Q740.33,666.49,673.68,525.14c-7.62-16.15-15.41-33.15-14.48-51,2-38.09,52.61-63.52,84.36-42.39,16.51,11,25.64,29.86,34,47.84l239.55,514c19.63,42.11,39.69,84.89,70.63,119.56,62.07,69.54,168.28,96.83,255.12,63s147-128.1,138.14-220.89C1478.17,925.31,1469,896.7,1457.41,868.87Z"/></g></svg>